HIERARCHY
ROOT SpineBase
{
  OFFSET 0.000000 0.000000 0.000000
  CHANNELS 6 Xposition Yposition Zposition Zrotation Xrotation Yrotation
  JOINT SpineMid
  {
    OFFSET 0.000000 29.374217 -0.000000
    CHANNELS 3 Zrotation Xrotation Yrotation
    JOINT SpineShoulder
    {
      OFFSET -0.009017 21.753367 -0.630780
      CHANNELS 3 Zrotation Xrotation Yrotation
      JOINT Neck
      {
        OFFSET -0.007352 7.199615 -0.496173
        CHANNELS 3 Zrotation Xrotation Yrotation
        JOINT Head
        {
          OFFSET -2.781750 12.498455 0.165085
          CHANNELS 3 Zrotation Xrotation Yrotation
          End Site
          {
            OFFSET 0 0 0
          }
        }
      }
      JOINT ShoulderLeft
      {
        OFFSET -14.051812 -4.437762 5.358409
        CHANNELS 3 Zrotation Xrotation Yrotation
        JOINT ElbowLeft
        {
          OFFSET 3.326978 -25.303036 -8.742434
          CHANNELS 3 Zrotation Xrotation Yrotation
          JOINT WristLeft
          {
            OFFSET -4.254007 -20.471359 10.719809
            CHANNELS 3 Zrotation Xrotation Yrotation
            JOINT HandLeft
            {
              OFFSET -0.014377 -5.492737 -0.378281
              CHANNELS 3 Zrotation Xrotation Yrotation
              JOINT HandTipLeft
              {
                OFFSET -0.376212 -6.998788 0.502861
                CHANNELS 3 Zrotation Xrotation Yrotation
                End Site
                {
                  OFFSET 0 0 0
                }
              }
              JOINT ThumbLeft
              {
                OFFSET 2.466471 -1.064900 -4.250603
                CHANNELS 3 Zrotation Xrotation Yrotation
                End Site
                {
                  OFFSET 0 0 0
                }
              }
            }
          }
        }
      }
      JOINT ShoulderRight
      {
        OFFSET 10.928206 -4.261174 -11.181292
        CHANNELS 3 Zrotation Xrotation Yrotation
        JOINT ElbowRight
        {
          OFFSET 5.504230 -23.285279 -1.846467
          CHANNELS 3 Zrotation Xrotation Yrotation
          JOINT WristRight
          {
            OFFSET -2.102525 -20.938295 -4.782022
            CHANNELS 3 Zrotation Xrotation Yrotation
            JOINT HandRight
            {
              OFFSET -0.687675 -5.278102 0.669168
              CHANNELS 3 Zrotation Xrotation Yrotation
              JOINT HandTipRight
              {
                OFFSET 0.315655 -6.993316 0.144488
                CHANNELS 3 Zrotation Xrotation Yrotation
                End Site
                {
                  OFFSET 0 0 0
                }
              }
              JOINT ThumbRight
              {
                OFFSET 2.520928 -0.445078 -2.145797
                CHANNELS 3 Zrotation Xrotation Yrotation
                End Site
                {
                  OFFSET 0 0 0
                }
              }
            }
          }
        }
      }
    }
  }
  JOINT HipLeft
  {
    OFFSET -5.324727 0.457956 -0.002553
    CHANNELS 3 Zrotation Xrotation Yrotation
    JOINT KneeLeft
    {
      OFFSET 3.516366 -23.902766 7.065442
      CHANNELS 3 Zrotation Xrotation Yrotation
      JOINT AnkleLeft
      {
        OFFSET 8.838799 -33.598145 8.460548
        CHANNELS 3 Zrotation Xrotation Yrotation
        JOINT FootLeft
        {
          OFFSET -3.283930 -6.019047 -5.995032
          CHANNELS 3 Zrotation Xrotation Yrotation
          End Site
          {
            OFFSET 0 0 0
          }
        }
      }
    }
  }
  JOINT HipRight
  {
    OFFSET 5.260544 0.874243 -6.613715
    CHANNELS 3 Zrotation Xrotation Yrotation
    JOINT KneeRight
    {
      OFFSET 9.207936 -30.166354 7.496180
      CHANNELS 3 Zrotation Xrotation Yrotation
      JOINT AnkleRight
      {
        OFFSET 5.028016 -30.112484 5.582037
        CHANNELS 3 Zrotation Xrotation Yrotation
        JOINT FootRight
        {
          OFFSET -4.135471 -3.499889 -8.414620
          CHANNELS 3 Zrotation Xrotation Yrotation
          End Site
          {
            OFFSET 0 0 0
          }
        }
      }
    }
  }
}
MOTION
Frames: 11
Frame Time: 0.033333
7.586534 68.931432 339.718055 2.144175 0.631264 32.333608 -0.201794 -0.472341 -32.271695 0.167109 -0.365181 0.107912 -5.486850 -0.889101 -0.392397 0.000000 0.000000 0.000000 -38.796433 6.622410 16.236951 146.894716 62.349348 -124.483618 -61.731318 -24.833710 -51.409413 0.124727 23.724588 -0.069894 0.000000 0.000000 0.000000 0.000000 0.000000 0.000000 -36.940980 37.539625 24.753094 -98.077775 3.579537 -28.203783 -26.356338 20.403706 -34.683100 -18.382348 -1.988791 74.124896 0.000000 0.000000 0.000000 0.000000 0.000000 0.000000 -4.846308 2.118141 -33.209317 1.077021 -0.445423 0.254244 0.118510 6.784024 -0.680215 0.000000 0.000000 0.000000 -2.215495 5.388422 -31.748778 3.912760 -8.887219 -0.892367 4.679645 -11.453411 9.768227 0.000000 0.000000 0.000000
7.368035 69.124596 339.635048 1.957971 0.569697 32.802805 -0.091370 -0.489253 -32.741833 0.163856 -0.349125 0.103882 -5.497448 -0.736382 -0.347430 0.000000 0.000000 0.000000 -38.829834 6.443050 16.222932 147.273612 62.242211 -124.714037 -61.741087 -24.832922 -51.431066 0.126168 23.728307 -0.065418 0.000000 0.000000 0.000000 0.000000 0.000000 0.000000 -37.283793 37.647998 25.044683 -97.293600 3.394959 -28.599031 -26.821976 18.483627 -38.103739 -20.282336 -0.130785 89.807966 0.000000 0.000000 0.000000 0.000000 0.000000 0.000000 -4.505838 2.044357 -33.637548 1.031622 -0.465220 0.233974 -3.195429 11.188471 0.365208 0.000000 0.000000 0.000000 -2.334012 4.296251 -32.471222 3.621125 -6.967882 -0.570043 1.094597 -5.786357 8.249676 0.000000 0.000000 0.000000
7.222709 69.209716 339.535303 1.869004 0.540688 33.411467 -0.046321 -0.482433 -33.351594 0.152574 -0.344055 0.100813 -5.489618 -0.576704 -0.300957 0.000000 0.000000 0.000000 -38.941002 6.251288 16.226185 147.598235 62.157134 -124.858116 -61.728243 -24.830617 -51.401693 0.127791 23.732506 -0.060381 0.000000 0.000000 0.000000 0.000000 0.000000 0.000000 -37.811470 37.705158 25.390990 -96.200512 4.204958 -27.479636 -28.300384 11.356512 -53.486991 -24.581897 -1.454423 106.636113 0.000000 0.000000 0.000000 0.000000 0.000000 0.000000 -4.354768 2.017165 -34.232885 1.086806 -0.463229 0.243600 -7.617941 17.007096 1.990527 0.000000 0.000000 0.000000 -1.678558 4.119673 -32.927514 2.799309 -7.345052 -0.864419 0.577598 -4.066688 8.024869 0.000000 0.000000 0.000000
7.134453 69.234089 339.456245 1.829831 0.544583 33.975024 -0.020545 -0.459295 -33.916319 0.139546 -0.334391 0.098624 -5.500184 -0.554614 -0.283561 0.000000 0.000000 0.000000 -39.122984 6.007631 16.217886 142.300182 63.792768 -120.950025 -65.219084 -25.205689 -54.278841 0.098598 27.967828 4.773308 0.000000 0.000000 0.000000 0.000000 0.000000 0.000000 -38.369822 37.623583 25.656660 -95.965290 3.507526 -28.654405 -27.201254 12.206378 -50.103558 -26.167755 -1.313016 114.410401 0.000000 0.000000 0.000000 0.000000 0.000000 0.000000 -4.304851 1.997562 -34.795950 1.203183 -0.606039 0.228101 -10.167913 21.601058 2.547910 0.000000 0.000000 0.000000 -1.109953 3.894799 -33.348084 2.005831 -7.635000 -1.136355 -1.339745 0.679877 6.789334 0.000000 0.000000 0.000000
7.095670 69.207606 339.389911 1.832024 0.569710 34.428970 -0.031696 -0.434407 -34.371517 0.114601 -0.333636 0.096085 -5.349548 -0.656789 -0.299958 0.000000 0.000000 0.000000 -39.323708 6.014508 16.326732 140.777879 64.527386 -122.240511 -54.843278 -28.516680 -40.147979 0.557637 20.900882 -2.657816 0.000000 0.000000 0.000000 0.000000 0.000000 0.000000 -38.862529 37.599753 25.925586 -95.826239 2.693032 -30.087109 -23.413304 16.868148 -38.900931 -26.783626 -1.042512 107.483078 0.000000 0.000000 0.000000 0.000000 0.000000 0.000000 -4.373218 1.968252 -35.270091 1.251634 -0.479092 0.267431 -12.556873 21.750733 4.708449 0.000000 0.000000 0.000000 -1.441374 3.356310 -33.980044 2.073373 -6.462615 -0.860959 -2.532590 3.486357 5.009975 0.000000 0.000000 0.000000
7.080651 69.176427 339.322055 1.868717 0.611689 34.885380 -0.045429 -0.416358 -34.828332 0.092492 -0.333688 0.095311 -5.252439 -0.850910 -0.340231 0.000000 0.000000 0.000000 -39.524223 5.955137 16.384280 148.263791 62.185230 -126.833679 -52.752410 -29.794469 -39.238451 -2.060620 18.656206 -7.248670 0.000000 0.000000 0.000000 0.000000 0.000000 0.000000 -39.348911 37.574954 26.167483 -95.484340 1.313562 -32.206729 -19.478817 21.169065 -28.930670 -26.577738 2.142162 94.674392 0.000000 0.000000 0.000000 0.000000 0.000000 0.000000 -4.443764 2.001034 -35.737020 1.230891 -0.387609 0.287989 -12.137374 18.821922 5.464410 0.000000 0.000000 0.000000 -2.033752 2.709033 -34.705649 2.321448 -4.784545 -0.435950 -0.772885 -1.345662 5.633554 0.000000 0.000000 0.000000
7.106239 69.143586 339.272665 1.967462 0.641990 35.265993 -0.065828 -0.401220 -35.207639 0.071054 -0.331436 0.096974 -5.286599 -1.052871 -0.388754 0.000000 0.000000 0.000000 -39.767527 5.928706 16.448599 159.686972 57.276927 -130.062248 -57.019561 -24.213909 -49.447401 -3.313463 17.638439 -10.055905 0.000000 0.000000 0.000000 0.000000 0.000000 0.000000 -39.213311 37.561349 26.053214 -95.715423 0.840190 -32.882852 -18.532290 23.234302 -24.921136 -25.841925 2.312160 87.622143 0.000000 0.000000 0.000000 0.000000 0.000000 0.000000 -4.588545 2.191085 -36.137372 1.283557 -0.432384 0.302327 -9.574868 14.206200 5.022625 0.000000 0.000000 0.000000 -2.033868 2.826745 -35.050468 2.166462 -5.278229 -0.563714 -0.758915 -0.553619 5.427239 0.000000 0.000000 0.000000
7.118389 69.098184 339.209087 2.037774 0.672651 35.745080 -0.089832 -0.395844 -35.685961 0.047577 -0.336350 0.097520 -5.270368 -1.127494 -0.406421 0.000000 0.000000 0.000000 -39.987922 5.898412 16.519496 172.695297 50.268955 -130.708780 -62.483757 -16.022305 -65.871688 -5.415705 20.247736 -11.062571 0.000000 0.000000 0.000000 0.000000 0.000000 0.000000 -38.627046 37.605842 25.754701 -96.001020 -0.050877 -33.964259 -17.838567 25.524399 -20.258195 -25.204045 4.188879 85.179010 0.000000 0.000000 0.000000 0.000000 0.000000 0.000000 -4.659198 2.320266 -36.621500 1.283441 -0.540852 0.280539 -10.284692 15.272305 5.344209 0.000000 0.000000 0.000000 -3.112786 2.146099 -35.971888 2.862775 -3.115596 0.080708 1.186070 -6.421351 6.866813 0.000000 0.000000 0.000000
7.127968 69.063331 339.159020 2.080511 0.680851 36.120124 -0.113301 -0.401952 -36.060234 0.035330 -0.349888 0.098131 -5.203587 -1.038173 -0.389657 0.000000 0.000000 0.000000 -40.124727 5.925501 16.592010 -177.838153 47.164923 -117.427987 -58.392969 18.655017 -94.416428 2.002207 19.375764 -1.884405 0.000000 0.000000 0.000000 0.000000 0.000000 0.000000 -38.167988 37.653892 25.533431 -95.938664 -0.510558 -34.305873 -17.244426 24.622567 -21.307474 -26.122676 5.435491 87.228842 0.000000 0.000000 0.000000 0.000000 0.000000 0.000000 -4.661964 2.451988 -36.991136 1.177572 -0.607742 0.246195 -8.687024 10.707127 5.977852 0.000000 0.000000 0.000000 -3.040889 2.338838 -36.294657 3.060787 -3.813314 -0.004080 -0.216508 -3.098209 5.789655 0.000000 0.000000 0.000000
7.144830 69.040684 339.114858 2.131390 0.701165 36.462656 -0.120355 -0.411594 -36.401512 0.037930 -0.345142 0.100533 -5.230372 -1.015118 -0.385457 0.000000 0.000000 0.000000 -40.243669 6.042220 16.664040 -171.743242 48.412477 -98.547447 -32.896242 50.722223 -143.546337 3.905055 24.100852 14.207815 0.000000 0.000000 0.000000 0.000000 0.000000 0.000000 -37.510802 37.629497 25.141843 -96.098507 -0.189039 -33.487904 -16.579885 23.477420 -23.447875 -26.638093 6.449293 89.751635 0.000000 0.000000 0.000000 0.000000 0.000000 0.000000 -4.778090 2.580096 -37.358706 1.226237 -0.592564 0.269971 -7.738911 7.716355 6.514946 0.000000 0.000000 0.000000 -2.740949 2.428544 -36.510015 2.717605 -4.517540 -0.224428 -0.785918 -2.077143 6.802533 0.000000 0.000000 0.000000
7.133278 69.045438 339.097352 2.165553 0.701464 36.629769 -0.100204 -0.417468 -36.567072 0.053790 -0.331866 0.103825 -5.434631 -0.987825 -0.379358 0.000000 0.000000 0.000000 -40.303490 6.174282 16.704789 -169.326062 51.087143 -81.837566 16.420370 58.108029 147.006647 -2.816911 29.161097 32.449270 0.000000 0.000000 0.000000 0.000000 0.000000 0.000000 -36.953028 37.571254 24.775334 -96.355126 0.172479 -32.676160 -14.932276 21.461169 -26.860818 -27.722667 7.161831 90.091899 0.000000 0.000000 0.000000 0.000000 0.000000 0.000000 -4.766771 2.709344 -37.518448 1.242322 -0.716514 0.252244 -7.587729 7.103470 6.707891 0.000000 0.000000 0.000000 -2.260192 2.574692 -36.486561 2.210329 -5.359103 -0.526152 0.596392 -4.877428 8.785770 0.000000 0.000000 0.000000
